PathFileType	4	(X/Y/Z)	 2.8Hzlow3min.trc
DataRate	CameraRate	NumFrames	NumMarkers	Units	OrigDataRate	OrigDataStartFrame	OrigNumFrames
200	200	8	35	m	200	1	1000
Frame#	Time	C7			LSH			RSH			MAN			RASI			LASI			HIPR			HIPL			RPSI			LPSI			COX			RTHI1			RTHI2			RTHI3			RTHI4			RSHA1			RSHA2			RSHA3			RSHA4			RHEEL			RMET5			RMET1			RTOE			LTHI1			LTHI2			LTHI3			LTHI4			LSHA1			LSHA2			LSHA3			LSHA4			LHEEL			LMET5			LMET1			LTOE			
		X1	Y1	Z1	X2	Y2	Z2	X3	Y3	Z3	X4	Y4	Z4	X5	Y5	Z5	X6	Y6	Z6	X7	Y7	Z7	X8	Y8	Z8	X9	Y9	Z9	X10	Y10	Z10	X11	Y11	Z11	X12	Y12	Z12	X13	Y13	Z13	X14	Y14	Z14	X15	Y15	Z15	X16	Y16	Z16	X17	Y17	Z17	X18	Y18	Z18	X19	Y19	Z19	X20	Y20	Z20	X21	Y21	Z21	X22	Y22	Z22	X23	Y23	Z23	X24	Y24	Z24	X25	Y25	Z25	X26	Y26	Z26	X27	Y27	Z27	X28	Y28	Z28	X29	Y29	Z29	X30	Y30	Z30	X31	Y31	Z31	X32	Y32	Z32	X33	Y33	Z33	X34	Y34	Z34	X35	Y35	Z35	
1	0.0050	-0.329095	1.604543	-0.505617	-0.317292	1.586206	-0.723026	-0.269876	1.587872	-0.314193	-0.181938	1.533094	-0.522820	-0.189274	1.090634	-0.401003	-0.196454	1.084216	-0.620138	-0.244484	1.138844	-0.349509	-0.269543	1.133491	-0.674202	-0.376278	1.121475	-0.444765	-0.386728	1.114290	-0.557617	-0.386885	1.127055	-0.497114	-0.265479	0.838140	-0.311902	-0.247871	0.783133	-0.300370	-0.184659	0.800107	-0.300725	-0.195196	0.859001	-0.314881	-0.335137	0.415787	-0.276456	-0.352807	0.376610	-0.280506	-0.295005	0.357839	-0.284484	-0.281894	0.395906	-0.283796	-0.471955	0.080452	-0.341012	-0.291568	0.027528	-0.268541	-0.249688	0.041561	-0.359949	-0.220539	0.030076	-0.358285	-0.261366	0.828127	-0.719824	-0.241668	0.770216	-0.727892	-0.179129	0.784874	-0.721805	-0.189935	0.843919	-0.713509	-0.329327	0.379445	-0.729958	-0.349377	0.344382	-0.727697	-0.292461	0.320475	-0.715020	-0.279266	0.362471	-0.719449	-0.492832	0.078602	-0.652893	-0.323447	0.026797	-0.741496	-0.265019	0.037455	-0.659565	-0.237152	0.028156	-0.666188	
2	0.0100	-0.329374	1.607211	-0.505779	-0.317446	1.588977	-0.723143	-0.270156	1.590811	-0.314245	-0.182175	1.535837	-0.522912	-0.188455	1.093768	-0.400961	-0.195645	1.087454	-0.619936	-0.243544	1.142103	-0.349616	-0.268678	1.136693	-0.674174	-0.375519	1.124106	-0.444608	-0.386095	1.116953	-0.557439	-0.386303	1.129578	-0.496997	-0.265242	0.841035	-0.311743	-0.247711	0.785805	-0.300037	-0.184460	0.802656	-0.300464	-0.194885	0.861584	-0.314642	-0.335642	0.417995	-0.276058	-0.353226	0.378798	-0.280118	-0.295346	0.360218	-0.284046	-0.282337	0.398303	-0.283129	-0.470999	0.082775	-0.340364	-0.291387	0.027469	-0.268524	-0.249659	0.041510	-0.359835	-0.220582	0.030068	-0.358321	-0.260868	0.830997	-0.720019	-0.241229	0.773066	-0.728188	-0.178677	0.787675	-0.721996	-0.189418	0.846648	-0.713523	-0.329573	0.381941	-0.730422	-0.349512	0.346777	-0.728154	-0.292510	0.322965	-0.715681	-0.279399	0.365012	-0.720079	-0.492112	0.081088	-0.653659	-0.323236	0.026819	-0.741482	-0.264951	0.037463	-0.659656	-0.237161	0.028169	-0.666161	
3	0.0150	-0.329638	1.610011	-0.505930	-0.317594	1.591967	-0.723237	-0.270432	1.593930	-0.314228	-0.182420	1.538791	-0.522995	-0.187641	1.097014	-0.400979	-0.194731	1.090797	-0.619730	-0.242614	1.145520	-0.349691	-0.267749	1.139955	-0.674184	-0.374613	1.126888	-0.444494	-0.385360	1.119789	-0.557294	-0.385664	1.132295	-0.496952	-0.265093	0.844002	-0.311505	-0.247697	0.788613	-0.299658	-0.184428	0.805363	-0.300077	-0.194680	0.864299	-0.314304	-0.336310	0.420280	-0.275644	-0.353767	0.381032	-0.279753	-0.295808	0.362668	-0.283505	-0.282921	0.400823	-0.282411	-0.470154	0.085130	-0.339504	-0.291177	0.027436	-0.268510	-0.249644	0.041440	-0.359704	-0.220648	0.030036	-0.358326	-0.260596	0.833970	-0.720116	-0.241087	0.776001	-0.728449	-0.178499	0.790490	-0.722347	-0.189081	0.849408	-0.713718	-0.329989	0.384534	-0.730917	-0.349822	0.349289	-0.728654	-0.292727	0.325592	-0.716435	-0.279716	0.367679	-0.720794	-0.491375	0.083535	-0.654429	-0.323009	0.026848	-0.741480	-0.264914	0.037322	-0.659655	-0.237186	0.028181	-0.666154	
4	0.0200	-0.329904	1.612840	-0.506088	-0.317739	1.595008	-0.723312	-0.270719	1.597076	-0.314244	-0.182658	1.541782	-0.523080	-0.186825	1.100295	-0.400984	-0.193799	1.094158	-0.619523	-0.241677	1.148985	-0.349769	-0.266797	1.143243	-0.674170	-0.373714	1.129734	-0.444372	-0.384608	1.122671	-0.557166	-0.385002	1.135065	-0.496895	-0.264978	0.847029	-0.311273	-0.247726	0.791469	-0.299283	-0.184433	0.808092	-0.299680	-0.194497	0.867045	-0.313959	-0.337002	0.422601	-0.275220	-0.354331	0.383295	-0.279373	-0.296293	0.365141	-0.282954	-0.283536	0.403368	-0.281698	-0.469274	0.087511	-0.338683	-0.290964	0.027405	-0.268498	-0.249627	0.041378	-0.359569	-0.220718	0.030010	-0.358329	-0.260372	0.836962	-0.720201	-0.241011	0.778946	-0.728694	-0.178380	0.793306	-0.722720	-0.188791	0.852176	-0.713938	-0.330438	0.387152	-0.731416	-0.350163	0.351827	-0.729158	-0.292970	0.328247	-0.717200	-0.280068	0.370380	-0.721515	-0.490625	0.085986	-0.655225	-0.322773	0.026883	-0.741472	-0.264873	0.037261	-0.659736	-0.237218	0.028193	-0.666151	
5	0.0250	-0.330168	1.615768	-0.506245	-0.317953	1.598142	-0.723391	-0.271018	1.600345	-0.314271	-0.182879	1.544885	-0.523144	-0.186009	1.103669	-0.400999	-0.192793	1.097570	-0.619305	-0.240733	1.152579	-0.349835	-0.265786	1.146596	-0.674143	-0.372763	1.132735	-0.444253	-0.383787	1.125689	-0.557069	-0.384283	1.137991	-0.496864	-0.264933	0.850118	-0.310974	-0.247877	0.794430	-0.298900	-0.184559	0.810898	-0.299210	-0.194393	0.869886	-0.313555	-0.337799	0.424988	-0.274776	-0.354975	0.385611	-0.278989	-0.296858	0.367680	-0.282345	-0.284249	0.405993	-0.280962	-0.468410	0.089930	-0.337796	-0.290736	0.027387	-0.268488	-0.249615	0.041311	-0.359414	-0.220804	0.029976	-0.358310	-0.260313	0.840021	-0.720223	-0.241156	0.781946	-0.728903	-0.178461	0.796131	-0.723191	-0.188642	0.854970	-0.714266	-0.331006	0.389851	-0.731928	-0.350623	0.354455	-0.729686	-0.293317	0.331001	-0.718020	-0.280544	0.373172	-0.722278	-0.489847	0.088432	-0.656049	-0.322521	0.026930	-0.741461	-0.264848	0.037199	-0.659849	-0.237267	0.028202	-0.666162	
6	0.0300	-0.330422	1.618749	-0.506403	-0.318203	1.601380	-0.723449	-0.271335	1.603665	-0.314385	-0.183106	1.548082	-0.523207	-0.185197	1.107122	-0.400978	-0.191737	1.101017	-0.619082	-0.239768	1.156317	-0.349912	-0.264713	1.150023	-0.674055	-0.371842	1.135900	-0.444095	-0.382920	1.128818	-0.556994	-0.383505	1.141046	-0.496810	-0.264975	0.853315	-0.310697	-0.248137	0.797515	-0.298529	-0.184773	0.813784	-0.298712	-0.194355	0.872799	-0.313124	-0.338659	0.427477	-0.274308	-0.355669	0.388023	-0.278569	-0.297471	0.370312	-0.281714	-0.285025	0.408701	-0.280239	-0.467466	0.092422	-0.337012	-0.290493	0.027383	-0.268482	-0.249596	0.041274	-0.359256	-0.220896	0.029955	-0.358283	-0.260382	0.843122	-0.720202	-0.241473	0.784987	-0.729077	-0.178697	0.798965	-0.723714	-0.188614	0.857789	-0.714643	-0.331661	0.392604	-0.732441	-0.351157	0.357136	-0.730223	-0.293729	0.333832	-0.718868	-0.281098	0.376050	-0.723053	-0.489035	0.090894	-0.656897	-0.322248	0.026993	-0.741432	-0.264851	0.037146	-0.659978	-0.237331	0.028205	-0.666183	
7	0.0350	-0.330684	1.621799	-0.506572	-0.318481	1.604678	-0.723483	-0.271685	1.607070	-0.314551	-0.183342	1.551396	-0.523278	-0.184386	1.110648	-0.400923	-0.190633	1.104468	-0.618849	-0.238782	1.160184	-0.349988	-0.263584	1.153515	-0.673938	-0.370927	1.139206	-0.443945	-0.382004	1.132063	-0.556958	-0.382676	1.144239	-0.496762	-0.265095	0.856603	-0.310403	-0.248511	0.800708	-0.298161	-0.185100	0.816738	-0.298192	-0.194392	0.875787	-0.312667	-0.339577	0.430044	-0.273829	-0.356416	0.390510	-0.278143	-0.298139	0.373026	-0.281038	-0.285869	0.411477	-0.279519	-0.466465	0.094955	-0.336277	-0.290237	0.027397	-0.268484	-0.249575	0.041258	-0.359082	-0.220998	0.029944	-0.358238	-0.260582	0.846273	-0.720140	-0.241963	0.788068	-0.729214	-0.179097	0.801797	-0.724288	-0.188706	0.860632	-0.715080	-0.332393	0.395416	-0.732951	-0.351760	0.359880	-0.730759	-0.294195	0.336726	-0.719733	-0.281729	0.379009	-0.723840	-0.488189	0.093366	-0.657799	-0.321954	0.027080	-0.741376	-0.264844	0.037190	-0.660189	-0.237411	0.028205	-0.666220	
8	0.0400	-0.330946	1.624892	-0.506734	-0.318844	1.607969	-0.723498	-0.272066	1.610530	-0.314757	-0.183591	1.554789	-0.523358	-0.183576	1.114217	-0.400826	-0.189494	1.107901	-0.618614	-0.237777	1.164166	-0.350068	-0.262408	1.157078	-0.673801	-0.370025	1.142633	-0.443800	-0.381048	1.135403	-0.556954	-0.381806	1.147547	-0.496728	-0.265294	0.859979	-0.310127	-0.248983	0.803975	-0.297818	-0.185522	0.819744	-0.297650	-0.194502	0.878835	-0.312183	-0.340530	0.432671	-0.273347	-0.357197	0.393056	-0.277716	-0.298845	0.375808	-0.280312	-0.286746	0.414315	-0.278803	-0.465394	0.097516	-0.335616	-0.289965	0.027433	-0.268500	-0.249554	0.041256	-0.358882	-0.221108	0.029946	-0.358172	-0.260885	0.849456	-0.720046	-0.242591	0.791182	-0.729316	-0.179626	0.804632	-0.724888	-0.188901	0.863481	-0.715548	-0.333179	0.398258	-0.733443	-0.352401	0.362640	-0.731283	-0.294689	0.339674	-0.720599	-0.282407	0.382017	-0.724619	-0.487307	0.095830	-0.658737	-0.321639	0.027195	-0.741286	-0.264843	0.037231	-0.660421	-0.237503	0.028205	-0.666272	
